<svg width="40" height="51" viewBox="0 0 40 51" fill="none" xmlns="http://www.w3.org/2000/svg">
<path d="M24.9887 13.951L16.5352 29.9831C14.7186 33.4282 10.4755 34.7106 7.05881 32.8481C3.6421 30.9857 2.344 26.6829 4.16054 23.2378L12.6141 7.20569C14.4306 3.76064 18.6738 2.47826 22.0905 4.34068C25.5072 6.2031 26.8053 10.506 24.9887 13.951Z" fill="#82C7F5" stroke="#035989"/>
<path d="M23.945 7.54452L17.359 20.0396L20.5633 21.787L24.5147 14.2903C25.8806 11.6989 25.7024 8.74161 24.2802 6.74729C24.174 7.01375 24.0823 7.28398 23.945 7.54452Z" fill="#76B2DB"/>
<path d="M4.16471 23.2248L8.16291 15.6437L20.5531 22.3963L16.5549 29.9774C14.7361 33.4261 10.4877 34.7099 7.06664 32.8454C3.64559 30.981 2.34592 26.6735 4.16471 23.2248Z" fill="#0071BD" stroke="#035989"/>
<path d="M15.3937 23.0034C13.6239 26.3592 9.4452 27.5845 6.06086 25.74C5.21845 25.2809 4.50566 24.6736 3.93532 23.9708C2.72426 27.176 4.04483 30.9003 7.17361 32.6055C10.558 34.4499 14.7367 33.2246 16.5065 29.8688L20.3519 22.5774L16.6752 20.5736L15.3932 23.0044L15.3937 23.0034Z" fill="#035989"/>
<path d="M33.3863 35.3144L18.711 45.5889C15.5707 47.7875 11.2169 46.9346 8.99425 43.6445C6.77164 40.3543 7.54716 35.9102 10.6875 33.7116L25.3628 23.4371C28.5031 21.2384 32.8569 22.0914 35.0795 25.3815C37.3022 28.6717 36.5266 33.1157 33.3863 35.3144Z" fill="#83EEB9" stroke="#22935B"/>
<path d="M35.4006 28.8581L23.7418 37.0224L25.911 40.2342L32.9058 35.3359C35.3238 33.6426 36.4833 30.8388 36.0662 28.2946C35.8491 28.4858 35.6437 28.6879 35.4006 28.8581Z" fill="#62D99E"/>
<path d="M10.6814 33.725L17.604 28.8791L25.6218 40.7459L18.6991 45.5918C15.561 47.7885 11.2103 46.9364 8.98932 43.6491C6.7683 40.3619 7.54325 35.9217 10.6814 33.725Z" fill="#2DAC6D" stroke="#22935B"/>
<path d="M20.7743 38.8811C17.7054 41.0294 13.4736 40.1904 11.323 37.0073C10.7877 36.215 10.4332 35.3515 10.2472 34.4691C7.73813 36.7412 7.22512 40.6349 9.21334 43.5776C11.364 46.7607 15.5957 47.5997 18.6647 45.4514L25.3328 40.7837L22.9964 37.3256L20.7733 38.8817L20.7743 38.8811Z" fill="#22935B"/>
</svg>
