<svg width="45" height="50" viewBox="0 0 45 50" fill="none" xmlns="http://www.w3.org/2000/svg">
<path d="M7.87176 39.1807L22.7849 2.0462C23.0955 1.27269 23.9562 0.912784 24.6992 1.22306L42.9954 8.86347C43.7384 9.17374 44.1042 10.0458 43.7936 10.8193L28.8805 47.9539C28.5698 48.7274 27.7092 49.0873 26.9662 48.777L8.66999 41.1366C7.92699 40.8263 7.56112 39.9542 7.87176 39.1807Z" fill="#0071BD" stroke="#035989"/>
<path d="M34.9348 9.00728C34.7198 8.16697 34.4529 6.11053 36.2544 5.87378C36.8817 6.13638 38.7815 6.92417 41.3623 7.97456C44.0388 9.28169 43.2863 11.0929 42.0954 13.9591L42.0794 13.9977C39.5702 20.0374 34.5338 33.6631 33.0283 37.2344C31.2571 41.4359 29.2121 49.8848 26.2548 48.8344L17.5781 45.3931C19.1912 45.6557 18.2155 44.2094 19.506 44.2094C20.7964 44.2094 29.8022 36.7967 30.071 36.184C31.5048 32.3326 34.7488 23.8419 36.2544 20.6908C38.1362 16.7518 35.2037 10.0577 34.9348 9.00728Z" fill="#035989"/>
<path d="M37.0931 8.32028L37.2862 7.85907L37.286 7.85901L37.2855 7.85879L37.2833 7.85787L37.2744 7.85415L37.2391 7.83933L37.1013 7.78127C36.9806 7.73036 36.8039 7.65561 36.5801 7.56038C36.1325 7.3699 35.4966 7.09755 34.744 6.77025C33.2382 6.1154 31.2676 5.24165 29.4038 4.3641L29.3908 4.35799L29.3775 4.35264C29.218 4.28844 29.0633 4.22599 28.9131 4.16539C27.6959 3.67417 26.7798 3.30449 26.084 3.10726C25.3105 2.88802 24.637 2.82778 24.0742 3.22404C23.8088 3.41093 23.6092 3.6724 23.4403 3.96857C23.2718 4.26413 23.1172 4.62449 22.9563 5.03664C22.8453 5.32092 22.7306 5.63124 22.604 5.97346C22.354 6.6497 22.0579 7.45051 21.6537 8.42124L21.6537 8.42122L21.6513 8.42708L11.4462 33.8349L11.2623 34.2926L11.7175 34.4827C14.1781 35.5101 15.3681 38.3882 14.3543 40.9129L14.1705 41.3706L14.6257 41.5606L22.4057 44.8081C22.799 44.9912 23.1625 45.1643 23.4982 45.3241C24.2135 45.6647 24.8023 45.945 25.2839 46.1344C25.9821 46.4089 26.6264 46.5684 27.2202 46.3191C27.7977 46.0766 28.183 45.5045 28.5564 44.7813C28.8282 44.2551 29.1313 43.5669 29.5059 42.7161C29.6594 42.3677 29.8248 41.992 30.005 41.5891L30.009 41.5802L30.0126 41.5713L40.088 16.4771H40.1059L40.2245 16.1455C40.6225 15.0327 40.9857 14.1669 41.2827 13.4588C41.3859 13.213 41.481 12.9861 41.5669 12.7746C41.7307 12.371 41.8658 12.0103 41.9466 11.6888C42.0277 11.3665 42.0646 11.0451 41.9982 10.7307C41.8581 10.0676 41.3138 9.66435 40.6018 9.29505C40.0386 9.00295 39.2554 8.67785 38.2355 8.25453C37.9392 8.13156 37.623 8.00031 37.2864 7.85917L37.2862 7.85908L37.0931 8.32028Z" fill="#82C7F5" stroke="#035989"/>
<path d="M36.6932 12.4405C36.5056 11.6825 35.2896 8.28926 34.6641 7.49976C35.2114 7.73661 36.9256 8.50209 39.1775 9.4495C41.7565 10.7493 41.1118 11.0743 39.5001 14.9738C37.3108 20.4214 32.7538 32.2248 31.4402 35.446C27.5716 43.6306 27.5716 46.8195 24.9659 45.7622L18.8672 42.92C20.2746 43.1569 23.3708 43.6306 24.4967 43.6306C25.6226 43.6306 28.9526 35.2572 29.1872 34.7046C30.4382 31.2307 33.2686 23.5725 34.5822 20.7303C36.2241 17.1775 36.9278 13.3879 36.6932 12.4405Z" fill="#6EB7E8"/>
<path d="M18.9371 22.1215C17.3807 26.0022 19.2021 30.4312 23.0078 32.0221C26.8134 33.613 31.1605 31.7557 32.7206 27.875C34.277 23.9981 32.4556 19.5653 28.6499 17.9744C24.8443 16.3835 20.4972 18.2408 18.9371 22.1215ZM25.3744 21.9246C25.5297 21.9902 25.56 22.0675 25.4994 22.2296C25.3896 22.4999 25.2836 22.7702 25.17 23.0367C25.151 23.0869 25.151 23.1178 25.2003 23.1486C25.4653 23.3224 25.6925 23.5386 25.8667 23.8089C26.0295 24.0599 26.1356 24.3379 26.1924 24.6314C26.2795 25.0986 26.2416 25.5581 26.128 26.0061C26.1242 26.0292 26.1166 26.0524 26.1129 26.0717C26.1129 26.0794 26.1129 26.0872 26.1129 26.1065C26.1507 26.0949 26.1886 26.0833 26.2227 26.0678C26.6846 25.9018 27.1504 25.7358 27.6162 25.5697C28.0251 25.4269 28.4417 25.2956 28.8544 25.1604C29.2369 25.0369 29.6193 24.9172 30.0018 24.7975C30.1457 24.755 30.2366 24.8168 30.2593 24.9712C30.2593 24.9789 30.2593 24.9867 30.2631 24.9905L29.7897 26.1644C29.661 26.2184 29.536 26.2802 29.4035 26.3188C29.0286 26.4463 28.6575 26.5621 28.2864 26.6857C27.9191 26.8092 27.548 26.9328 27.1845 27.0641C26.8134 27.1915 26.4423 27.3305 26.075 27.4618C25.8894 27.5313 25.7039 27.6008 25.5183 27.6703C25.4578 27.6974 25.401 27.6896 25.3404 27.6703L24.7042 27.4039C24.5755 27.3498 24.5376 27.2494 24.5906 27.1143C24.6777 26.8826 24.7724 26.6586 24.8632 26.427C24.9882 26.1065 25.0715 25.7782 25.0715 25.4307C25.0715 25.0755 24.9693 24.755 24.7118 24.5001C24.6815 24.4731 24.6512 24.4461 24.6171 24.4152C24.6058 24.4461 24.5906 24.4692 24.583 24.4924L23.6742 26.7552C23.6136 26.8787 23.5341 26.9096 23.4054 26.8594L22.9093 26.6509C22.7654 26.5891 22.7313 26.5042 22.7919 26.3574L23.6894 24.1256C23.5871 24.1217 23.5038 24.1487 23.4205 24.1796C23.163 24.2839 22.9775 24.4731 22.826 24.6971C22.6783 24.9056 22.5685 25.1411 22.4738 25.3805C22.3754 25.6161 22.2845 25.8516 22.1898 26.0872C22.1255 26.2493 22.0384 26.2841 21.8831 26.2223L21.247 25.9559C21.0917 25.8902 21.0614 25.8091 21.122 25.6547L22.9282 21.16C22.9926 21.0017 23.0721 20.967 23.2274 21.0287L23.7045 21.2257C23.856 21.2875 23.8901 21.3685 23.8257 21.5269L23.3296 22.7664C23.3637 22.7664 23.3789 22.7625 23.3978 22.7586C23.6591 22.6969 23.9241 22.693 24.1854 22.7393C24.2347 22.7471 24.2574 22.7316 24.2763 22.6853C24.3861 22.4073 24.4959 22.1254 24.6095 21.8474C24.6739 21.6852 24.7534 21.6543 24.9087 21.7199L25.3782 21.9169L25.3744 21.9246Z" fill="#0071BD"/>
<path d="M22.8333 35.8334C22.8333 42.0006 17.8338 47.0001 11.6667 47.0001C5.49949 47.0001 0.5 42.0006 0.5 35.8334C0.5 29.6662 5.49949 24.6667 11.6667 24.6667C17.8338 24.6667 22.8333 29.6662 22.8333 35.8334Z" fill="#FFC52E" stroke="#E8AF1A"/>
<path d="M11.6667 45.5001C17.0054 45.5001 21.3333 41.1722 21.3333 35.8334C21.3333 30.4947 17.0054 26.1667 11.6667 26.1667C6.32791 26.1667 2 30.4947 2 35.8334C2 41.1722 6.32791 45.5001 11.6667 45.5001Z" fill="#FAE5AE"/>
<path d="M12.6778 41.242C12.5551 41.1103 12.4218 40.9858 12.3061 40.847C11.9764 40.4591 11.6573 40.064 11.3276 39.6726C11.005 39.2882 10.6788 38.9039 10.3492 38.5231C10.016 38.1388 9.67582 37.758 9.33914 37.3772C9.1673 37.185 8.99545 36.9928 8.8201 36.8007C8.76399 36.7366 8.73593 36.669 8.73593 36.5836C8.73593 36.2846 8.73593 35.9821 8.73593 35.6832C8.73593 35.4981 8.83062 35.4056 9.01649 35.4021C9.32862 35.4021 9.64425 35.4021 9.95638 35.3985C10.3913 35.3949 10.8191 35.3344 11.2259 35.1672C11.6433 34.9928 11.9694 34.7188 12.1413 34.2811C12.1588 34.2348 12.1728 34.185 12.1939 34.1245C12.1518 34.1245 12.1202 34.1173 12.0852 34.1173C11.0786 34.1173 10.0721 34.1173 9.06559 34.1173C9.04104 34.1173 9.01299 34.1173 8.98844 34.1173C8.80958 34.1067 8.73593 34.0248 8.73242 33.8433C8.73242 33.6084 8.73242 33.3736 8.73242 33.1387C8.73242 32.9358 8.81659 32.854 9.02 32.854C10.002 32.854 10.9804 32.854 11.9624 32.854C11.9975 32.854 12.029 32.854 12.0781 32.854C12.0326 32.7294 11.9589 32.6369 11.8782 32.555C11.6327 32.2953 11.3206 32.1671 10.9839 32.0853C10.6613 32.007 10.3351 31.9963 10.009 31.9928C9.68634 31.9928 9.36369 31.9928 9.04104 31.9928C8.82361 31.9928 8.73593 31.9038 8.73593 31.6867C8.73593 31.3878 8.73593 31.0853 8.73593 30.7863C8.73593 30.5728 8.8201 30.491 9.03052 30.491C11.0821 30.491 13.1338 30.491 15.1854 30.491C15.4028 30.491 15.4835 30.5728 15.4835 30.7935C15.4835 31.0177 15.4835 31.2419 15.4835 31.4625C15.4835 31.6796 15.4063 31.7543 15.1889 31.7543C14.6628 31.7543 14.1368 31.7543 13.6107 31.7543C13.5792 31.7543 13.5441 31.7543 13.495 31.7543C13.516 31.7935 13.523 31.8148 13.5371 31.8362C13.7405 32.1209 13.8702 32.4376 13.9474 32.7793C13.9614 32.8469 13.993 32.8647 14.0561 32.8647C14.4384 32.8647 14.8207 32.8647 15.1994 32.8647C15.4168 32.8647 15.494 32.943 15.494 33.1672C15.494 33.3878 15.494 33.6084 15.494 33.8291C15.494 34.0497 15.4168 34.128 15.1959 34.128C14.8242 34.128 14.4559 34.128 14.0842 34.128C14.0175 34.128 13.9825 34.1387 13.9684 34.2206C13.8948 34.6263 13.751 35.007 13.5195 35.3487C13.3021 35.669 13.0286 35.9323 12.7094 36.1423C12.2079 36.4733 11.6538 36.6512 11.0646 36.733C11.0365 36.7366 11.0085 36.7402 10.9804 36.7473C10.9734 36.7473 10.9629 36.7544 10.9419 36.7615C10.9769 36.8042 11.005 36.8398 11.0401 36.879C11.4609 37.3594 11.8888 37.8363 12.3061 38.3238C12.6743 38.7544 13.0356 39.1886 13.3968 39.6263C13.7265 40.0285 14.0561 40.4342 14.3823 40.8399C14.505 40.9929 14.4735 41.1352 14.3051 41.2349C14.2981 41.2384 14.2946 41.2456 14.2876 41.2527H12.6778V41.242Z" fill="#FFC52E"/>
<path d="M11.4873 45.2888C11.7433 45.3101 12.0064 45.3208 12.2694 45.3208C17.4388 45.3208 21.6367 41.0716 21.6367 35.8331C21.6367 30.5946 17.4423 26.3455 12.2694 26.3455C12.0064 26.3455 11.7433 26.3561 11.4873 26.3775C16.2955 26.7796 18.0928 30.858 18.0928 35.8331C18.0928 40.8083 16.299 44.8866 11.4873 45.2888Z" fill="#FFDC77"/>
</svg>
