<svg width="148" height="148" viewBox="0 0 148 148" fill="none" xmlns="http://www.w3.org/2000/svg">
<rect width="148" height="148" fill="white"/>
<path d="M23.4478 50.2388C23.4478 48.1954 25.1043 46.5388 27.1478 46.5388H80.9842C83.0276 46.5388 84.6842 48.1954 84.6842 50.2388V113.139C84.6842 115.182 83.0276 116.839 80.9842 116.839H27.1478C25.1043 116.839 23.4478 115.182 23.4478 113.139V50.2388Z" fill="#C2DEEE"/>
<rect x="29.6144" y="42.1646" width="48.9034" height="8.74806" fill="#C2DEEE"/>
<rect x="32.3834" y="58.6821" width="43.3594" height="43.475" rx="3.7" fill="#F1FAFE"/>
<rect x="25.3909" y="25.5146" width="57.35" height="18.5" rx="1.85" fill="#AACFE3"/>
<path opacity="0.1" fill-rule="evenodd" clip-rule="evenodd" d="M32.3512 25.5146C31.3339 25.5199 30.5109 26.3461 30.5109 27.3646V42.1646C30.5109 43.1863 31.3392 44.0146 32.3609 44.0146H34.7345V46.5387H32.2679C30.2244 46.5387 28.5679 48.1952 28.5679 50.2387V113.139C28.5679 115.182 30.2244 116.839 32.2679 116.839H81.0301C81.0257 116.839 81.0213 116.839 81.0169 116.839H27.1805C25.137 116.839 23.4805 115.182 23.4805 113.139V50.2387C23.4805 48.1953 25.137 46.5387 27.1805 46.5387H29.6469V44.0146H27.2735C26.2518 44.0146 25.4235 43.1864 25.4235 42.1646V27.3646C25.4235 26.3429 26.2518 25.5146 27.2735 25.5146H32.3512Z" fill="#3B515C"/>
<path fill-rule="evenodd" clip-rule="evenodd" d="M54.0634 66.9355C52.2016 66.9355 50.6923 68.4448 50.6923 70.3066V77.0484H43.9499C42.0881 77.0484 40.5789 78.5577 40.5789 80.4195C40.5789 82.2813 42.0881 83.7906 43.9499 83.7906H50.6923V90.533C50.6923 92.3948 52.2016 93.9041 54.0634 93.9041C55.9252 93.9041 57.4345 92.3948 57.4345 90.533V83.7906H64.1763C66.0381 83.7906 67.5474 82.2813 67.5474 80.4195C67.5474 78.5577 66.0381 77.0484 64.1763 77.0484H57.4345V70.3066C57.4345 68.4448 55.9252 66.9355 54.0634 66.9355Z" fill="#C2DEEE"/>
<circle cx="80.2808" cy="66.6891" r="1.85" fill="#AACFE3"/>
<circle cx="80.2798" cy="75.9386" r="1.85" fill="#AACFE3"/>
<circle cx="80.2798" cy="87.0387" r="1.85" fill="#AACFE3"/>
<path d="M55.2913 40.3147C54.2696 40.3147 53.4413 39.4864 53.4413 38.4647L53.4413 25.5147L57.1413 25.5147L57.1413 38.4647C57.1413 39.4864 56.313 40.3147 55.2913 40.3147Z" fill="#C2DEEE"/>
<path d="M63.8476 40.3147C62.8258 40.3147 61.9976 39.4864 61.9976 38.4647L61.9976 25.5147L65.6976 25.5147L65.6976 38.4647C65.6976 39.4864 64.8693 40.3147 63.8476 40.3147Z" fill="#C2DEEE"/>
<path d="M72.4038 40.3147C71.3821 40.3147 70.5538 39.4864 70.5538 38.4647L70.5538 25.5147L74.2538 25.5147L74.2538 38.4647C74.2538 39.4864 73.4256 40.3147 72.4038 40.3147Z" fill="#C2DEEE"/>
<path d="M73.0975 107.589C73.0975 102.48 77.2389 98.3386 82.3475 98.3386H113.798C118.906 98.3386 123.048 102.48 123.048 107.589C123.048 112.697 118.906 116.839 113.798 116.839H82.3475C77.2389 116.839 73.0975 112.697 73.0975 107.589Z" fill="#E2EFF7"/>
<path fill-rule="evenodd" clip-rule="evenodd" d="M98.9024 98.3386H82.3475C77.2389 98.3386 73.0975 102.48 73.0975 107.589C73.0975 112.697 77.2389 116.839 82.3475 116.839H99.2861C102.359 110.13 101.242 103.499 98.9024 98.3386Z" fill="#AACFE3"/>
<path opacity="0.1" fill-rule="evenodd" clip-rule="evenodd" d="M76.4043 100.5C76.2623 101.145 76.1874 101.814 76.1874 102.501C76.1874 107.61 80.3287 111.751 85.4374 111.751H116.887C119.15 111.751 121.223 110.939 122.831 109.59C121.916 113.736 118.219 116.839 113.798 116.839H82.3475C77.2389 116.839 73.0975 112.697 73.0975 107.589C73.0975 104.743 74.3827 102.197 76.4043 100.5Z" fill="#3B515C"/>
<path d="M63.3636 112.624C60.8093 108.2 62.3252 102.543 66.7494 99.9885L93.9859 84.2635C98.4101 81.7092 104.067 83.2251 106.622 87.6493C109.176 92.0735 107.66 97.7307 103.236 100.285L75.9994 116.01C71.5752 118.564 65.918 117.048 63.3636 112.624Z" fill="#E2EFF7"/>
<path fill-rule="evenodd" clip-rule="evenodd" d="M81.0867 91.7109L66.7494 99.9885C62.3252 102.543 60.8093 108.2 63.3636 112.624C65.918 117.048 71.5752 118.564 75.9994 116.01L90.6691 107.54C89.9761 100.194 85.6935 95.0103 81.0867 91.7109Z" fill="#AACFE3"/>
<path opacity="0.1" fill-rule="evenodd" clip-rule="evenodd" d="M62.6833 104.832C62.8824 105.461 63.1523 106.078 63.4958 106.673C66.0501 111.098 71.7073 112.613 76.1315 110.059L103.368 94.3341C105.328 93.2027 106.717 91.4625 107.434 89.4903C108.716 93.5388 107.065 98.0741 103.236 100.285L75.9995 116.01C71.5753 118.564 65.918 117.048 63.3637 112.624C61.9408 110.16 61.7809 107.313 62.6833 104.832Z" fill="#3B515C"/>
</svg>
