<svg width="42" height="50" viewBox="0 0 42 50" fill="none" xmlns="http://www.w3.org/2000/svg">
<g clip-path="url(#clip0_1981_8868)">
<path d="M40.1556 6.66206L20.8954 0.779024C20.8952 0.778977 20.8951 0.778931 20.8949 0.778884C20.768 0.740365 20.6327 0.740372 20.5058 0.778905C20.5056 0.778944 20.5055 0.778984 20.5054 0.779024L1.24439 6.66259L1.24386 6.66276C0.958462 6.7497 0.75 7.02282 0.75 7.34863V28.9229C0.75 31.521 1.78168 34.2375 3.90995 37.0025L3.91001 37.0026C5.53676 39.1165 7.80579 41.2617 10.671 43.3738C15.4826 46.9202 20.2267 49.0999 20.4226 49.1892L40.1556 6.66206ZM40.1556 6.66206L40.1555 6.66234C40.4422 6.75026 40.6507 7.02487 40.6507 7.34863V28.9229C40.6507 31.521 39.6191 34.2365 37.4907 37.0026C35.8628 39.1168 33.5947 41.2629 30.7299 43.3737C25.9108 46.9246 21.1605 49.1065 20.9785 49.1891L20.9781 49.1892C20.8883 49.23 20.7935 49.25 20.7004 49.25C20.6075 49.25 20.5131 49.2302 20.4235 49.1896L40.1556 6.66206Z" fill="#0071BD" stroke="#005995" stroke-width="1.5"/>
<path d="M39.637 6.70215L20.3744 0.818359C20.1048 0.736328 19.8171 0.736328 19.5476 0.818359C31.4209 11.7417 36.6484 38.1421 19.373 50.6289C19.5601 50.7139 19.7605 50.7568 19.961 50.7568C20.1614 50.7568 20.3619 50.7139 20.5489 50.6289C20.7513 50.5371 25.5554 48.3301 30.4354 44.7344C33.3405 42.5938 35.6644 40.4004 37.3457 38.2168C39.5459 35.3574 40.6614 32.4854 40.6614 29.6797V8.10547C40.6614 7.45898 40.2441 6.88867 39.6361 6.70215H39.637Z" fill="#0067AC"/>
<path d="M21.1516 36.9824C28.6998 36.9824 34.8189 30.752 34.8189 23.0664C34.8189 15.3808 28.6998 9.15039 21.1516 9.15039C13.6034 9.15039 7.48438 15.3808 7.48438 23.0664C7.48438 30.752 13.6034 36.9824 21.1516 36.9824Z" fill="white"/>
<path d="M20.1604 30.3037C19.5771 30.3037 19.0115 30.0875 18.57 29.6918L13.3911 25.0534C12.3885 24.1552 12.2886 22.5969 13.1663 21.572C14.0449 20.5471 15.5694 20.445 16.5719 21.3422L19.9258 24.3467L30.5119 12.2148C31.3852 11.1854 32.9096 11.075 33.9158 11.9677C34.9228 12.8604 35.0308 14.4187 34.1575 15.4473L21.9828 29.452C21.5617 29.948 20.965 30.2517 20.3245 30.2964C20.2692 30.3 20.2148 30.3018 20.1595 30.3018L20.1604 30.3037Z" fill="#0071BD"/>
</g>
<defs>
<clipPath id="clip0_1981_8868">
<rect width="41.4017" height="50" fill="white"/>
</clipPath>
</defs>
</svg>
