<svg width="34" height="36" viewBox="0 0 34 36" fill="none" xmlns="http://www.w3.org/2000/svg">
<path d="M28.7581 17.625L33.1873 33.3C33.8839 35.7651 31.5858 35.2889 30.5235 34.9024C29.6369 34.5798 26.0956 33.283 26.0956 33.283C26.0956 33.283 23.7097 34.5018 23.0649 34.8244C21.6598 35.5274 20.2273 35.3522 19.6105 33.6719C19.5943 33.6277 18.0804 28.7931 16.6562 24.2441V17.625H28.7581Z" fill="#0060FF"/>
<path d="M4.56558 17.6523L0.12936 33.3521C-0.568289 35.8211 1.73339 35.3441 2.79739 34.9569C3.68537 34.6338 7.23229 33.335 7.23229 33.335C7.23229 33.335 9.62191 34.5557 10.2677 34.8788C11.6751 35.5829 13.1098 35.4075 13.7276 33.7245C13.7438 33.6803 15.2601 28.8381 16.6865 24.2818V17.6523H4.56558Z" fill="#0060FF"/>
<path d="M16.6836 17.6523V24.2818C17.7752 27.7687 18.4638 29.9652 18.9481 31.5083C20.31 31.2554 21.5954 29.0578 22.8978 28.6533C24.2784 28.2245 26.9174 29.4268 28.0898 28.6173C29.2621 27.8078 28.8376 25.0763 29.6869 23.9652C29.8587 23.7405 30.1147 23.5415 30.4161 23.3558L28.8045 17.6523H16.6836Z" fill="#0043E0"/>
<path d="M4.7015 17.6523C4.60743 17.8584 4.49815 18.0694 4.3837 18.2824L3.51562 21.3547C4.14703 22.5303 6.8235 23.0013 7.64547 24.0568C8.50516 25.1608 8.10619 27.8957 9.28608 28.6954C10.466 29.4952 13.0936 28.271 14.4782 28.6883C14.7142 28.7594 14.9502 28.89 15.1866 29.0563C15.7483 27.2635 15.9615 26.5856 16.6827 24.2818V17.6523H4.7015Z" fill="#0043E0"/>
<path d="M26.0986 27.1648C24.9281 27.9731 22.2933 26.7726 20.9149 27.2007C19.5364 27.6288 18.177 30.0697 16.7255 30.0758C15.274 30.0818 13.8918 27.6522 12.5094 27.2356C11.127 26.819 8.50351 28.0413 7.32547 27.2428C6.14744 26.4443 6.54571 23.7136 5.68737 22.6114C4.82903 21.5092 1.94364 21.046 1.48902 19.7479C1.0344 18.4499 3.06106 16.4612 3.05466 15.0944C3.04825 13.7276 1.00304 11.7558 1.44548 10.454C1.88792 9.15224 4.76886 8.6651 5.61684 7.55579C6.46481 6.44647 6.04098 3.71925 7.21148 2.91098C8.38199 2.10271 11.0168 3.30321 12.3952 2.87511C13.7737 2.447 15.1331 0.00603798 16.5846 1.12523e-05C18.0361 -0.00603145 19.4183 2.42355 20.8008 2.84019C22.1832 3.25682 24.8066 2.03448 25.9847 2.833C27.1627 3.63151 26.7644 6.36215 27.6228 7.46438C28.4811 8.56661 31.3665 9.02979 31.8211 10.3278C32.2757 11.6259 30.2491 13.6146 30.2555 14.9814C30.2619 16.3482 32.3071 18.32 31.8646 19.6218C31.4222 20.9235 28.5413 21.4107 27.6933 22.52C26.8453 23.6293 27.2692 26.3565 26.0986 27.1648Z" fill="#52C7FF"/>
<path fill-rule="evenodd" clip-rule="evenodd" d="M1.10938 31.6445V31.9263H1.70785V31.6445H1.10938ZM2.60511 31.6445V31.9263H3.20348V31.6445H2.60511ZM4.1007 31.6445V31.9263H4.69921V31.6445H4.1007ZM5.59706 31.6445V31.9263H6.19554V31.6445H5.59706ZM7.09265 31.6445V31.9263H7.69116V31.6445H7.09265ZM8.58838 31.6445V31.9263H9.18689V31.6445H8.58838ZM10.0847 31.6445V31.9263H10.6832V31.6445H10.0847ZM11.5803 31.6445V31.9263H12.1788V31.6445H11.5803ZM13.0761 31.6445V31.9263H13.6746V31.6445H13.0761Z" fill="#E7EDFB"/>
<path d="M26.0486 15.0392C26.0486 17.3837 25.0596 19.6322 23.2991 21.29C21.5385 22.9478 19.1508 23.8792 16.661 23.8792C14.1713 23.8792 11.7835 22.9478 10.023 21.29C8.26248 19.6322 7.27344 17.3837 7.27344 15.0392C7.27344 13.8783 7.51625 12.7288 7.98802 11.6563C8.4598 10.5838 9.15128 9.60925 10.023 8.78839C10.8947 7.96752 11.9296 7.31637 13.0686 6.87212C14.2075 6.42787 15.4282 6.19922 16.661 6.19922C19.1508 6.19922 21.5385 7.13057 23.2991 8.78839C25.0596 10.4462 26.0486 12.6947 26.0486 15.0392Z" fill="#009FFF"/>
<path d="M22.2893 13.9062C21.8723 14.6633 20.7658 15.4821 20.5308 16.1775C20.2148 17.1126 21.0486 18.9462 20.2093 19.5278C19.37 20.1093 17.7657 18.7722 16.7237 18.7781C15.9793 18.7823 14.8805 19.4757 14.0047 19.6632C13.9648 20.2868 14.0018 20.9937 14.3928 21.2578C15.2395 21.8298 16.9764 20.4728 18.0184 20.4668C19.0604 20.4609 20.8146 21.7981 21.6539 21.2165C22.4932 20.6349 21.6593 18.6602 21.9753 17.7252C22.2913 16.7901 24.1837 15.6323 23.8557 14.701C23.6997 14.258 22.9576 14.0572 22.2893 13.9062Z" fill="#0082FF"/>
<path d="M16.4507 4.12891L16.4535 4.4107L17.047 4.41435L17.0537 4.13307L16.4507 4.12891ZM15.5408 4.17674L14.9418 4.24537L14.9826 4.52456L15.5718 4.45698L15.5408 4.17674ZM17.963 4.19598L17.9277 4.4757L18.5162 4.55109L18.5599 4.27241L17.963 4.19598ZM14.044 4.40395L13.461 4.54693L13.5416 4.81833L14.1164 4.6769L14.044 4.40395ZM19.4543 4.4471L19.3792 4.71954L19.9512 4.86876L20.0357 4.5984L19.4543 4.4471ZM12.5952 4.81573L12.0359 5.02785L12.1519 5.28781L12.7024 5.07881L12.5952 4.81573ZM20.8987 4.8802L20.7844 5.14016L21.3304 5.36008L21.4525 5.10324L20.8987 4.8802ZM11.2144 5.4022L10.6899 5.68243L10.8417 5.92523L11.3579 5.64968L11.2144 5.4022ZM22.2663 5.48902L22.1194 5.73442L22.6318 6.01726L22.7864 5.77602L22.2663 5.48902ZM9.92682 6.15348L9.44591 6.4961L9.63032 6.71759L10.104 6.38068L9.92682 6.15348ZM23.54 6.26058L23.3601 6.48571L23.8288 6.82937L24.016 6.60945L23.54 6.26058ZM8.7541 7.05606L8.32455 7.45484L8.53822 7.65188L8.96115 7.25987L8.7541 7.05606ZM24.6962 7.18136L24.4869 7.38257L24.9038 7.7803L25.1202 7.58585L24.6962 7.18136ZM7.71555 8.09434L7.34507 8.54199L7.58415 8.71148L7.9491 8.27059L7.71555 8.09434ZM25.7165 8.23575L25.4808 8.40941L25.8391 8.85498L26.0804 8.6886L25.7165 8.23575ZM6.82994 9.25064L6.52351 9.73936L6.78301 9.87922L7.08557 9.39777L6.82994 9.25064ZM26.5823 9.40557L26.3244 9.54855L26.6176 10.0347L26.8804 9.89949L26.5823 9.40557ZM6.11273 10.5057L5.87531 11.0277L6.15193 11.1353L6.38548 10.6211L6.11273 10.5057ZM27.2796 10.6726L27.0035 10.7813L27.226 11.3002L27.5054 11.1988L27.2796 10.6726ZM5.57441 11.8393L5.41263 12.3868L5.7025 12.4575L5.86096 11.9194L5.57441 11.8393ZM27.792 12.0135L27.5038 12.0894L27.6545 12.6301L27.9449 12.5625L27.792 12.0135ZM5.22767 13.227L5.14209 13.7885L5.43858 13.8254L5.52306 13.2717L5.22767 13.227ZM28.1155 13.4074L27.819 13.4459L27.8908 14.0006L28.1884 13.9715L28.1155 13.4074ZM5.07473 14.6469L5.07031 15.2146L5.36901 15.212L5.37398 14.6531L5.07473 14.6469ZM28.2419 14.8288L27.9427 14.8304L27.9355 15.4564L28.2342 15.4653L28.2419 14.8288ZM5.41705 16.0423L5.11945 16.0715L5.19178 16.6356L5.48827 16.5971L5.41705 16.0423ZM27.8682 16.2851L27.7826 16.8383L28.078 16.8836L28.1647 16.3215L27.8682 16.2851ZM5.6506 17.4144L5.35963 17.4794L5.5076 18.0295L5.79691 17.9567L5.6506 17.4144ZM27.6004 17.652L27.4403 18.1906L27.7274 18.2702L27.8897 17.7232L27.6004 17.652ZM6.07298 18.7454L5.7936 18.8457L6.01831 19.3729L6.29438 19.2638L6.07298 18.7454ZM27.146 18.9731L26.9113 19.4868L27.1841 19.6022L27.4226 19.0802L27.146 18.9731ZM6.67645 20.0124L6.41364 20.1476L6.71068 20.6415L6.96852 20.4991L6.67645 20.0124ZM26.511 20.2272L26.2068 20.707L26.4608 20.8552L26.7705 20.3681L26.511 20.2272ZM7.45108 21.1947L7.2098 21.3611L7.5731 21.8145L7.80886 21.6408L7.45108 21.1947ZM25.7082 21.3923L25.3394 21.8306L25.5708 22.0089L25.9451 21.5644L25.7082 21.3923ZM8.38252 22.272L8.16664 22.467L8.58901 22.8715L8.79882 22.6708L8.38252 22.272ZM24.7498 22.4493L24.3241 22.8392L24.5295 23.0441L24.9612 22.6484L24.7498 22.4493ZM9.4553 23.2266L9.26758 23.4455L9.7413 23.7959L9.92295 23.5718L9.4553 23.2266ZM23.6532 23.3799L23.179 23.7169L23.3562 23.9435L23.8371 23.602L23.6532 23.3799ZM10.6512 24.0413L10.4939 24.281L11.0117 24.5716L11.1614 24.3278L10.6512 24.0413ZM22.4391 24.1692L21.9223 24.4442L22.0653 24.6912L22.5904 24.412L22.4391 24.1692ZM11.9487 24.7026L11.8261 24.9595L12.3805 25.1835L12.4937 24.9231L11.9487 24.7026ZM21.1261 24.8024L20.5757 25.0104L20.6822 25.2735L21.2421 25.0619L21.1261 24.8024ZM13.3257 25.1986L13.2412 25.469L13.8221 25.6213L13.8977 25.3484L13.3257 25.1986ZM19.7375 25.2683L19.1617 25.405L19.2301 25.6796L19.8148 25.5407L19.7375 25.2683ZM14.7618 25.5189L14.7143 25.7971L15.3112 25.8782L15.3498 25.599L14.7618 25.5189ZM18.2932 25.5569L17.7041 25.6234L17.735 25.9036L18.334 25.836L18.2932 25.5569ZM16.2282 25.6619L16.2222 25.9437L16.8245 25.9489L16.8223 25.6671L16.2282 25.6619Z" fill="#E7EDFB"/>
<path fill-rule="evenodd" clip-rule="evenodd" d="M19.6211 31.6445V31.9263H20.2196V31.6445H19.6211ZM21.1168 31.6445V31.9263H21.7152V31.6445H21.1168ZM22.6124 31.6445V31.9263H23.2109V31.6445H22.6124ZM24.1088 31.6445V31.9263H24.7073V31.6445H24.1088ZM25.6044 31.6445V31.9263H26.2029V31.6445H25.6044ZM27.1001 31.6445V31.9263H27.6986V31.6445H27.1001ZM28.5965 31.6445V31.9263H29.1949V31.6445H28.5965ZM30.0921 31.6445V31.9263H30.6906V31.6445H30.0921ZM31.5878 31.6445V31.9263H32.1863V31.6445H31.5878Z" fill="#E7EDFB"/>
<path d="M20.3206 19.6369C19.4826 20.2176 17.7312 18.8825 16.6909 18.8885C15.6505 18.8944 13.9164 20.2493 13.071 19.6782C12.2256 19.1072 13.0328 17.1261 12.7053 16.1962C12.3778 15.2663 10.4735 14.132 10.789 13.1984C11.1046 12.2648 13.3548 12.3755 14.1928 11.7949C15.0307 11.2142 15.5879 9.15828 16.6283 9.15236C17.6687 9.14642 18.2522 11.1959 19.0976 11.7669C19.943 12.338 22.1916 12.2017 22.5191 13.1316C22.8466 14.0615 20.9571 15.2174 20.6415 16.151C20.326 17.0846 21.1586 19.0563 20.3206 19.6369Z" fill="#E7EDFB"/>
</svg>
