<svg width="20" height="21" viewBox="0 0 20 21" fill="none" xmlns="http://www.w3.org/2000/svg">
<path d="M10 16.1093C9.72917 16.1093 9.50521 16.0191 9.32812 15.8388C9.15104 15.6585 9.0625 15.4305 9.0625 15.1547V4.3047L5.96875 7.45471C5.78125 7.64562 5.5625 7.73577 5.3125 7.72517C5.0625 7.71456 4.84375 7.6138 4.65625 7.42289C4.46875 7.23199 4.375 7.00395 4.375 6.7388C4.375 6.47365 4.46875 6.24562 4.65625 6.05471L9.34375 1.28197C9.44792 1.17591 9.55208 1.10167 9.65625 1.05924C9.76042 1.01682 9.875 0.995605 10 0.995605C10.125 0.995605 10.2396 1.01682 10.3438 1.05924C10.4479 1.10167 10.5521 1.17591 10.6562 1.28197L15.375 6.08653C15.5625 6.27744 15.6562 6.50016 15.6562 6.75471C15.6562 7.00926 15.5625 7.23199 15.375 7.42289C15.1875 7.6138 14.9635 7.70926 14.7031 7.70926C14.4427 7.70926 14.2188 7.6138 14.0312 7.42289L10.9375 4.3047V15.1547C10.9375 15.4305 10.849 15.6585 10.6719 15.8388C10.4948 16.0191 10.2708 16.1093 10 16.1093ZM1.875 20.9775C1.375 20.9775 0.9375 20.7866 0.5625 20.4047C0.1875 20.0229 0 19.5775 0 19.0684V15.4729C0 15.1972 0.0885418 14.9691 0.265625 14.7888C0.442708 14.6085 0.666667 14.5184 0.9375 14.5184C1.20833 14.5184 1.43229 14.6085 1.60937 14.7888C1.78646 14.9691 1.875 15.1972 1.875 15.4729V19.0684H18.125V15.4729C18.125 15.1972 18.2135 14.9691 18.3906 14.7888C18.5677 14.6085 18.7917 14.5184 19.0625 14.5184C19.3333 14.5184 19.5573 14.6085 19.7344 14.7888C19.9115 14.9691 20 15.1972 20 15.4729V19.0684C20 19.5775 19.8125 20.0229 19.4375 20.4047C19.0625 20.7866 18.625 20.9775 18.125 20.9775H1.875Z" fill="#0071BD"/>
<path d="M17.8641 8.50902L10.3335 1.13048C10.2451 1.0442 10.1253 0.995605 10.0003 0.995605C9.87535 0.995605 9.75551 1.04419 9.6672 1.13048L2.13656 8.50902C2.00287 8.63997 1.96307 8.83673 2.03618 9.00712C2.10906 9.17794 2.2801 9.28907 2.4697 9.28907H6.19386V16.5235C6.19386 16.7761 6.40425 16.9811 6.66338 16.9811H13.336C13.5956 16.9811 13.8056 16.7761 13.8056 16.5235V9.28907H17.5304C17.72 9.28907 17.891 9.17794 17.9639 9.00712C18.0368 8.83673 17.9978 8.63997 17.8641 8.50902Z" fill="#0071BD"/>
</svg>
